<svg width="153" height="34" fill="none" xmlns="http://www.w3.org/2000/svg"><path fill-rule="evenodd" clip-rule="evenodd" d="M146.241 22.7c-1.17.313-2.206.323-3.108.03-1.182-.384-1.986-1.088-2.413-2.112l11.385.04c.331-2.334.04-4.306-.873-5.919-.913-1.612-2.378-2.746-4.397-3.402-1.482-.482-2.957-.584-4.424-.307-1.467.277-2.75.883-3.85 1.817a7.536 7.536 0 0 0-2.323 3.48c-.485 1.493-.605 2.92-.358 4.28.247 1.36.873 2.556 1.879 3.589 1.006 1.032 2.347 1.82 4.022 2.365.773.252 1.632.387 2.575.406a12.89 12.89 0 0 0 2.786-.243l-.901-4.025Zm-2.056-8.4c-.937 0-1.709.29-2.318.865s-.964 1.34-1.065 2.294l6.754-.012c-.098-.973-.455-1.742-1.072-2.305-.616-.563-1.383-.844-2.299-.843Zm-15.19 12.284h4.692V0h-4.692v26.584ZM49.422 0v26.584h4.692v-1.482c1.295 1.258 2.938 1.886 4.926 1.886a7.514 7.514 0 0 0 3.787-.993c1.162-.663 2.089-1.606 2.782-2.83.692-1.225 1.038-2.645 1.038-4.263 0-1.617-.312-3.01-.938-4.178-.625-1.168-1.469-2.06-2.53-2.678-1.061-.618-2.229-.927-3.502-.927-1.184 0-2.257.163-3.218.489-.96.325-1.753.746-2.379 1.263V0h-4.658Zm4.692 20.789v-3.605c.29-.719.782-1.292 1.474-1.719.693-.426 1.497-.64 2.413-.64 1.073 0 1.989.382 2.748 1.146.76.764 1.14 1.73 1.14 2.898 0 .763-.18 1.465-.537 2.105a3.99 3.99 0 0 1-1.424 1.5c-.592.36-1.234.539-1.927.539-1.787 0-3.083-.741-3.887-2.224Zm59.11-8.66c-1.095.675-1.972 1.623-2.631 2.848-.659 1.224-.988 2.645-.988 4.262 0 2.56.675 4.493 2.027 5.795 1.352 1.303 3.111 1.954 5.279 1.954 1.854 0 3.485-.74 4.892-2.223v1.82h4.692V11.86h-4.596l-.062 1.517a6.3 6.3 0 0 0-2.011-1.668c-.76-.393-1.787-.59-3.083-.59a6.596 6.596 0 0 0-3.519 1.01Zm3.1 10.48a3.985 3.985 0 0 1-1.424-1.5 4.24 4.24 0 0 1-.536-2.106c0-1.168.363-2.134 1.089-2.898.726-.763 1.603-1.145 2.63-1.145.894 0 1.671.213 2.33.64a3.43 3.43 0 0 1 1.39 1.719v3.605c-.737 1.482-1.921 2.224-3.552 2.224-.693 0-1.335-.18-1.927-.54Zm-82.87-10.417c-1.095.674-1.971 1.623-2.63 2.848-.66 1.224-.989 2.644-.989 4.262 0 2.56.676 4.492 2.027 5.795 1.352 1.303 3.111 1.954 5.279 1.954 1.854 0 3.485-.741 4.893-2.223v1.819h4.692V11.923h-4.597l-.062 1.516a6.306 6.306 0 0 0-2.01-1.668c-.76-.393-1.788-.59-3.084-.59a6.596 6.596 0 0 0-3.519 1.011Zm2.98 10.479a3.99 3.99 0 0 1-1.424-1.5 4.246 4.246 0 0 1-.536-2.105c0-1.168.363-2.134 1.09-2.898.725-.764 1.602-1.145 2.63-1.145.894 0 1.67.213 2.33.64.658.427 1.122 1 1.39 1.718v3.605c-.737 1.483-1.922 2.224-3.553 2.224-.692 0-1.334-.18-1.926-.539Zm63.202-10.76c-.871.483-1.514 1.1-1.927 1.853-.413.752-.62 1.522-.62 2.308 0 1.033.313 1.948.938 2.746.626.797 1.576 1.398 2.849 1.802.179.046.531.146 1.056.304.525.157 1 .354 1.424.59.425.235.637.578.637 1.027 0 .382-.184.668-.553.86-.369.19-.855.286-1.458.286-1.14 0-2.357-.607-3.653-1.82l-1.944 2.595c.693.763 1.564 1.359 2.614 1.785 1.05.427 2.179.64 3.385.64 1.363 0 2.519-.24 3.469-.724.949-.483 1.659-1.117 2.128-1.904a4.97 4.97 0 0 0 .704-2.594c0-2.022-1.151-3.414-3.452-4.178a23.012 23.012 0 0 1-.872-.27c-.871-.247-1.513-.488-1.927-.724-.413-.236-.608-.59-.586-1.061 0-.315.168-.584.503-.809.335-.224.77-.337 1.307-.337.447 0 .944.118 1.491.354a6.407 6.407 0 0 1 1.491.893l1.777-2.763a8.04 8.04 0 0 0-2.447-1.213c-.849-.247-1.877-.37-3.083-.37-1.296 0-2.38.24-3.25.724Zm-13.119 0c-.871.483-1.513 1.1-1.927 1.853-.413.752-.62 1.522-.62 2.308 0 1.033.313 1.948.939 2.746.625.797 1.575 1.398 2.848 1.802.18.046.531.146 1.056.304.525.157 1 .354 1.424.59.425.235.637.578.637 1.027 0 .382-.184.668-.553.86-.368.19-.854.286-1.458.286-1.14 0-2.357-.607-3.653-1.82l-1.944 2.595c.693.763 1.564 1.359 2.615 1.785 1.05.427 2.178.64 3.384.64 1.363 0 2.52-.24 3.47-.724.949-.483 1.658-1.117 2.127-1.904a4.97 4.97 0 0 0 .704-2.594c0-2.022-1.15-3.414-3.452-4.178a22.728 22.728 0 0 1-.871-.27c-.872-.247-1.514-.488-1.927-.724-.414-.236-.609-.59-.587-1.061 0-.315.168-.584.503-.809.335-.224.77-.337 1.307-.337.447 0 .944.118 1.491.354a6.418 6.418 0 0 1 1.492.893l1.776-2.763a8.036 8.036 0 0 0-2.447-1.213c-.849-.247-1.876-.37-3.083-.37-1.296 0-2.38.24-3.25.724Zm-7.12-.05-3.887 8.692-3.854-8.693h-5.262l6.77 13.95-3.519 7.85h4.525l9.45-21.8h-4.223Z" fill="#282E3B"/><path fill-rule="evenodd" clip-rule="evenodd" d="M11.348 8.62c.39-.136.787-.205 1.178-.205 1.753 0 3.075 1.365 3.075 3.175v.765l.015-.005v8.668c0 1.2-.976 2.518-2.169 2.93L5.493 26.7v-.032l-1.24.432c-.39.136-.787.205-1.178.205C1.322 27.305 0 25.94 0 24.131v-8.436c0-1.78 1.294-3.572 3.01-4.17l8.338-2.905Zm2.345 4.41-5.45 1.928c-.744.264-1.434.795-1.943 1.498-.52.719-.807 1.556-.807 2.356v5.813l-1.861.649c-.195.068-.382.1-.557.1-.677 0-1.166-.481-1.166-1.243v-8.436c0-.959.775-2.014 1.723-2.344l8.337-2.905c.195-.068.382-.1.557-.1.677 0 1.167.482 1.167 1.244v1.44Zm.536 13.2-8.431 2.918a2.553 2.553 0 0 0 2.314 1.418c.342 0 .692-.062 1.038-.185l8.755-3.098c.744-.263 1.434-.795 1.943-1.497.52-.719.807-1.556.807-2.356v-8.997c0-.762-.263-1.46-.74-1.965a2.553 2.553 0 0 0-1.878-.792h-.019v9.342c0 2.224-1.628 4.465-3.789 5.212Z" fill="#2B50E6"/></svg>